<svg xmlns="http://www.w3.org/2000/svg" viewBox="0 0 64 64">
  <rect width="64" height="64" rx="14" fill="#27272a"/>
  <rect x="14" y="17" width="36" height="34" rx="5" fill="#fafafa"/>
  <rect x="14" y="17" width="36" height="10" rx="5" fill="#d4d4d8"/>
  <rect x="14" y="23" width="36" height="4" fill="#d4d4d8"/>
  <rect x="21" y="12" width="4" height="11" rx="2" fill="#fafafa"/>
  <rect x="39" y="12" width="4" height="11" rx="2" fill="#fafafa"/>
  <rect x="21" y="33" width="7" height="6" rx="1.5" fill="#71717a"/>
  <rect x="32" y="33" width="7" height="6" rx="1.5" fill="#a1a1aa"/>
  <rect x="21" y="42" width="18" height="4" rx="2" fill="#3f3f46"/>
  <path d="M44 43.5c2.2 0 4-1.8 4-4s-1.8-4-4-4-4 1.8-4 4 1.8 4 4 4Z" fill="#27272a"/>
  <path d="M44 37.2v2.5l1.8 1" fill="none" stroke="#fafafa" stroke-width="1.6" stroke-linecap="round" stroke-linejoin="round"/>
</svg>
